<svg width="24" height="25" viewBox="0 0 24 25" fill="none" xmlns="http://www.w3.org/2000/svg">
<path d="M16 2.05664V6.05664" stroke="#969696" stroke-width="1.5" stroke-linecap="round" stroke-linejoin="round"/>
<path d="M8 2.05664V6.05664" stroke="#969696" stroke-width="1.5" stroke-linecap="round" stroke-linejoin="round"/>
<path d="M3 9.05664H21" stroke="#969696" stroke-width="1.5" stroke-linecap="round" stroke-linejoin="round"/>
<path fill-rule="evenodd" clip-rule="evenodd" d="M19 4.05664H5C3.895 4.05664 3 4.95164 3 6.05664V19.0566C3 20.1616 3.895 21.0566 5 21.0566H19C20.105 21.0566 21 20.1616 21 19.0566V6.05664C21 4.95164 20.105 4.05664 19 4.05664Z" stroke="#969696" stroke-width="1.5" stroke-linecap="round" stroke-linejoin="round"/>
<path d="M12.0132 12.7852C11.8752 12.7852 11.7632 12.8972 11.7642 13.0352C11.7642 13.1732 11.8762 13.2852 12.0142 13.2852C12.1522 13.2852 12.2642 13.1732 12.2642 13.0352C12.2642 12.8972 12.1522 12.7852 12.0132 12.7852" stroke="#969696" stroke-width="1.5" stroke-linecap="round" stroke-linejoin="round"/>
<path d="M17.0132 12.7852C16.8752 12.7852 16.7632 12.8972 16.7642 13.0352C16.7642 13.1732 16.8762 13.2852 17.0142 13.2852C17.1522 13.2852 17.2642 13.1732 17.2642 13.0352C17.2642 12.8972 17.1522 12.7852 17.0132 12.7852" stroke="#969696" stroke-width="1.5" stroke-linecap="round" stroke-linejoin="round"/>
<path d="M7.01316 16.7852C6.87516 16.7852 6.76316 16.8972 6.76416 17.0352C6.76416 17.1732 6.87616 17.2852 7.01416 17.2852C7.15216 17.2852 7.26416 17.1732 7.26416 17.0352C7.26416 16.8972 7.15216 16.7852 7.01316 16.7852" stroke="#969696" stroke-width="1.5" stroke-linecap="round" stroke-linejoin="round"/>
<path d="M12.0132 16.7852C11.8752 16.7852 11.7632 16.8972 11.7642 17.0352C11.7642 17.1732 11.8762 17.2852 12.0142 17.2852C12.1522 17.2852 12.2642 17.1732 12.2642 17.0352C12.2642 16.8972 12.1522 16.7852 12.0132 16.7852" stroke="#969696" stroke-width="1.5" stroke-linecap="round" stroke-linejoin="round"/>
</svg>
