<svg width="105" height="25" viewBox="0 0 105 25" fill="none" xmlns="http://www.w3.org/2000/svg">
<path d="M24.78 8.79267L36.82 8.743C37.11 8.743 37.4 8.83241 37.65 8.99138C37.86 9.09073 38.03 9.24969 38.15 9.43846C38.25 9.57756 38.3 9.74645 38.3 9.91535C38.3 10.0942 38.24 10.273 38.14 10.422C38 10.6108 37.83 10.7698 37.63 10.8791C37.37 11.0182 37.08 11.0877 36.79 11.0976H28.98C28.61 11.0976 27.98 11.0976 27.56 11.1175C27.5 11.1175 27.44 11.1374 27.39 11.1573C27.34 11.1871 27.29 11.2169 27.25 11.2665C27.21 11.3063 27.18 11.3659 27.16 11.4156C27.14 11.4752 27.13 11.5348 27.13 11.5944C27.16 12.7171 27.24 15.5983 27.38 16.3136C27.64 17.943 28.42 19.4432 29.6 20.5758C30.81 21.778 32.18 22.3741 33.69 22.3542H40.61C40.98 22.3344 41.77 22.3244 42.26 22.3244C42.38 22.3244 42.49 22.2748 42.58 22.1853C42.66 22.0959 42.71 21.9866 42.71 21.8674L42.69 20.2678V18.4994C42.69 18.4398 42.68 18.3802 42.66 18.3205C42.64 18.2609 42.6 18.2113 42.56 18.1715C42.52 18.1318 42.47 18.092 42.41 18.0722C42.35 18.0523 42.3 18.0424 42.24 18.0424H34.2C33.89 18.0523 33.57 18.0026 33.28 17.8834C32.99 17.7642 32.72 17.5953 32.5 17.3767C32.01 16.8501 31.69 16.1745 31.6 15.4592H36.65C37.88 15.4691 39.09 15.1313 40.14 14.4756C40.97 13.9689 41.66 13.2436 42.12 12.3793C42.52 11.6341 42.73 10.7996 42.73 9.94516C42.73 9.1106 42.51 8.29591 42.12 7.57064C41.65 6.70628 40.97 5.97107 40.14 5.45444C39.09 4.79872 37.88 4.46092 36.65 4.47086H24.79L24.77 8.79267H24.78Z" fill="#2E343B"/>
<path fill-rule="evenodd" clip-rule="evenodd" d="M0.879961 4.25195H24.3C24.61 4.25195 24.61 8.70293 24.3 8.69299H15.16V23.7051H10.37V8.70293H0.889961C0.579961 8.70293 0.559961 4.25195 0.889961 4.25195H0.879961Z" fill="#2E343B"/>
<path d="M50.7198 22.8309L51.2998 22.9799C52.3098 23.2183 53.3398 23.3475 54.3798 23.3475C55.4098 23.3475 56.4298 23.2283 57.4298 22.9799C58.4398 22.7414 59.4098 22.3838 60.3298 21.9168C61.2498 21.43 62.0798 20.7743 62.7698 19.9993C63.4898 19.2144 63.9198 18.1911 63.9598 17.1181V5.21572C63.9598 5.0965 63.9098 4.97728 63.8298 4.89779C63.7498 4.80838 63.6298 4.76864 63.5098 4.7587L60.0798 4.7289C59.9598 4.7289 59.8498 4.77857 59.7598 4.85805C59.6798 4.94747 59.6298 5.05676 59.6298 5.17598L59.6598 16.1544C59.6298 16.7108 59.3998 17.2274 58.9998 17.6049C58.5998 17.9924 58.1298 18.3103 57.6298 18.5289C57.1198 18.7674 56.5898 18.9462 56.0398 19.0555C55.4998 19.1747 54.9398 19.2343 54.3898 19.2343C53.2598 19.2343 52.1398 18.9959 51.1098 18.5289C50.6098 18.2905 50.1398 17.9725 49.7398 17.595C49.3598 17.2075 49.1298 16.6909 49.1098 16.1445V5.1263C49.1098 5.06669 49.0998 5.00708 49.0798 4.95741C49.0598 4.89779 49.0198 4.84812 48.9798 4.80838C48.9398 4.76864 48.8898 4.7289 48.8298 4.70903C48.7798 4.68915 48.7198 4.67922 48.6598 4.67922L45.3198 4.64941C45.2598 4.64941 45.1998 4.65935 45.1498 4.67922C45.0898 4.69909 45.0398 4.73883 44.9998 4.77857C44.9598 4.81831 44.9198 4.86799 44.8998 4.9276C44.8798 4.98721 44.8698 5.04682 44.8698 5.10643L44.8398 15.8464V17.1082C44.8798 18.1812 45.2998 19.1946 45.9998 19.9894C46.6898 20.7743 47.5198 21.43 48.4398 21.9069C49.1598 22.3142 49.9198 22.6222 50.7198 22.8309Z" fill="#2E343B"/>
<path d="M70.32 8.9719C70.58 8.81294 70.88 8.73346 71.19 8.72352H82.36C82.48 8.72352 82.59 8.67385 82.68 8.59437C82.76 8.50495 82.81 8.39566 82.81 8.27644V5.02762C82.81 4.9084 82.76 4.79911 82.68 4.7097C82.6 4.62028 82.49 4.58054 82.37 4.57061L71.9 4.38184C71.78 4.38184 71.65 4.38184 71.53 4.41164H71.36C70.13 4.40171 68.92 4.7395 67.87 5.40516C67.04 5.93173 66.36 6.66694 65.9 7.54123C65.51 8.27644 65.3 9.09113 65.29 9.92569C65.29 10.7702 65.49 11.6147 65.87 12.3697C66.34 13.2242 67.02 13.9494 67.84 14.4661C68.9 15.1218 70.11 15.4596 71.35 15.4596H79.75C80.04 15.4596 80.33 15.549 80.58 15.708C80.8 15.8371 80.97 16.0358 81.08 16.2644C81.17 16.4134 81.22 16.5922 81.24 16.7611C81.24 16.9698 81.18 17.1685 81.08 17.3473C80.95 17.546 80.78 17.7149 80.57 17.8341C80.32 17.9831 80.04 18.0428 79.75 18.0129H66.1C66.04 18.0129 65.98 18.0229 65.93 18.0428C65.88 18.0626 65.83 18.1024 65.78 18.1421C65.73 18.1818 65.71 18.2315 65.68 18.2911C65.66 18.3507 65.65 18.4104 65.65 18.47V21.7486C65.65 21.8678 65.7 21.987 65.78 22.0665C65.86 22.1559 65.98 22.1957 66.09 22.1957L79.55 22.3348C80.78 22.3844 82 22.0665 83.04 21.4108C83.87 20.8644 84.55 20.1292 85.01 19.2449C85.4 18.4799 85.61 17.6354 85.62 16.771C85.61 15.8371 85.37 14.933 84.92 14.1183C84.47 13.3037 83.82 12.6281 83.04 12.1313C82 11.4557 80.79 11.098 79.55 11.108H71.17C70.87 11.108 70.57 11.0285 70.3 10.8894C70.11 10.7702 69.95 10.6112 69.82 10.4324C69.72 10.2734 69.67 10.0946 69.67 9.91575C69.67 9.74685 69.72 9.57795 69.82 9.42893C69.94 9.23022 70.1 9.07126 70.3 8.96197L70.32 8.9719Z" fill="#2E343B"/>
<path d="M104.07 4.70928L84.8399 4.57019C84.7199 4.57019 84.6099 4.61987 84.5299 4.69935C84.4499 4.78877 84.3999 4.89805 84.3999 5.01728V8.28596C84.3999 8.40518 84.4499 8.52441 84.5299 8.60389C84.6099 8.6933 84.7299 8.73305 84.8499 8.73305L92.0699 8.75292C92.0699 8.75292 92.1199 8.75292 92.1399 8.76285C92.1599 8.76285 92.1799 8.78272 92.1999 8.80259C92.2199 8.82246 92.2299 8.84233 92.2399 8.8622C92.2399 8.88207 92.2499 8.91188 92.2499 8.93175V21.8177C92.2499 21.9369 92.2999 22.0562 92.3799 22.1357C92.4599 22.2251 92.5799 22.2648 92.6999 22.2648L96.1199 22.2449C96.1799 22.2449 96.2399 22.235 96.2899 22.2052C96.3399 22.1853 96.3899 22.1456 96.4299 22.1058C96.4699 22.0661 96.4999 22.0164 96.5299 21.9568C96.5499 21.8972 96.5599 21.8475 96.5599 21.7879V8.95162C96.5599 8.95162 96.5599 8.89201 96.5799 8.8622C96.5899 8.8324 96.6099 8.81253 96.6299 8.79266C96.6499 8.77279 96.6799 8.75292 96.6999 8.74298C96.7299 8.73305 96.7599 8.72311 96.7899 8.72311H104.05C104.11 8.72311 104.17 8.72311 104.22 8.6933C104.28 8.67343 104.33 8.64363 104.37 8.59395C104.41 8.55421 104.45 8.50454 104.47 8.44492C104.49 8.38531 104.5 8.3257 104.5 8.26609L104.52 5.11663C104.52 4.9974 104.47 4.87818 104.38 4.7987C104.3 4.71922 104.18 4.66954 104.06 4.66954L104.07 4.70928Z" fill="#2E343B"/>
<path d="M22.96 24.9771H2.18C0.98 24.9771 0 24.0035 0 22.8113V2.16588C0 0.973651 0.98 0 2.18 0H22.96C24.16 0 25.14 0.973651 25.14 2.16588V22.8113C25.14 24.0035 24.16 24.9771 22.96 24.9771ZM2.18 1.23197C1.66 1.23197 1.24 1.64925 1.24 2.16588V22.8113C1.24 23.3279 1.66 23.7452 2.18 23.7452H22.96C23.48 23.7452 23.9 23.3279 23.9 22.8113V2.16588C23.9 1.64925 23.48 1.23197 22.96 1.23197H2.18Z" fill="#2E343B"/>
</svg>
