<svg width="18" height="19" viewBox="0 0 18 19" fill="none" xmlns="http://www.w3.org/2000/svg">
<path d="M12.9319 8.86394V11.673C12.9319 11.843 12.9752 12.0101 13.0577 12.1587L13.8111 13.5147C14.1814 14.1812 13.6994 15.0003 12.9369 15.0003H2.69952C1.93703 15.0003 1.45506 14.1812 1.82536 13.5147L2.57871 12.1587C2.66125 12.0101 2.70456 11.843 2.70456 11.673V8.86394V6.72754C2.70456 4.5184 4.49542 2.72754 6.70456 2.72754H7.36368" stroke="#2E343B" stroke-width="1.5" stroke-linecap="round"/>
<path d="M5.09082 15H10.5454V15.7273C10.5454 16.8319 9.64997 17.7273 8.5454 17.7273H7.09082C5.98625 17.7273 5.09082 16.8319 5.09082 15.7273V15Z" stroke="#2E343B" stroke-width="1.5"/>
<ellipse cx="12.5908" cy="3.40911" rx="3.40911" ry="3.40911" fill="#FF5834"/>
</svg>
