<svg width="24" height="24" viewBox="0 0 24 24" fill="none" xmlns="http://www.w3.org/2000/svg">
<path d="M22 12V6C22 3.79086 20.2091 2 18 2H6C3.79086 2 2 3.79086 2 6V13C2 15.2091 3.79086 17 6 17H8" stroke="#418CFF" stroke-width="1.5" stroke-linecap="round" stroke-linejoin="round"/>
<path d="M21.6845 21L21.9843 18.6005C22.1177 17.5333 21.3831 16.5517 20.3217 16.3786L18 16V13.5C18 12.6716 17.3284 12 16.5 12V12C15.6715 12 15 12.6716 15 13.5V17.9998L14.4145 17.4142C14.1492 17.149 13.7895 17 13.4144 17C13.0393 17 12.6795 17.149 12.4143 17.4142V17.4142C11.9376 17.891 11.8636 18.6379 12.2375 19.1988L13.4382 21" stroke="#418CFF" stroke-width="1.5" stroke-linecap="round" stroke-linejoin="round"/>
<path fill-rule="evenodd" clip-rule="evenodd" d="M8.71519 6.48789C8.86257 6.18918 9.16677 6.00006 9.49987 6.00006C9.83296 6.00006 10.1372 6.18918 10.2845 6.48789L10.7297 7.39037C10.8572 7.64867 11.1035 7.82772 11.3886 7.86915L12.3844 8.0139C12.7139 8.06182 12.9877 8.29262 13.0906 8.60928C13.1936 8.92594 13.1079 9.27359 12.8695 9.50611L12.1486 10.2093C11.9425 10.4103 11.8485 10.6998 11.8972 10.9836L12.0673 11.9752C12.1235 12.3034 11.9886 12.6351 11.7192 12.8309C11.4498 13.0266 11.0927 13.0525 10.7979 12.8976L9.90693 12.4294C9.65208 12.2954 9.34765 12.2954 9.09281 12.4294L8.20187 12.8976C7.90708 13.0525 7.54991 13.0266 7.28051 12.8309C7.01111 12.6351 6.87619 12.3034 6.93246 11.9752L7.10257 10.9836C7.15123 10.6998 7.05721 10.4103 6.85113 10.2093L6.13022 9.50611C5.89187 9.27359 5.80616 8.92594 5.9091 8.60928C6.01204 8.29262 6.28579 8.06182 6.6153 8.0139L7.61117 7.86915C7.89619 7.82772 8.14258 7.64867 8.26999 7.39037L8.71519 6.48789Z" stroke="#418CFF" stroke-width="1.5" stroke-linecap="round" stroke-linejoin="round"/>
</svg>
