<svg width="24" height="24" viewBox="0 0 24 24" fill="none" xmlns="http://www.w3.org/2000/svg">
<path fill-rule="evenodd" clip-rule="evenodd" d="M18.2041 5.76199C16.5581 4.11499 14.3691 3.20699 12.0371 3.20599C7.23014 3.20599 3.31914 7.11499 3.31814 11.92C3.31614 13.449 3.71714 14.952 4.48114 16.277L3.24414 20.793L7.86614 19.581C9.14514 20.277 10.5771 20.642 12.0331 20.642H12.0371C16.8421 20.642 20.7531 16.732 20.7551 11.927C20.7561 9.59899 19.8501 7.40999 18.2041 5.76199Z" stroke="#418CFF" stroke-width="1.5" stroke-linecap="round" stroke-linejoin="round"/>
<path d="M13.0952 13.5599L13.5012 13.1569C13.8742 12.7869 14.4642 12.7399 14.8942 13.0419C15.3102 13.3339 15.6862 13.5959 16.0362 13.8399C16.5922 14.2259 16.6592 15.0179 16.1802 15.4959L15.8212 15.8549" stroke="#418CFF" stroke-width="1.5" stroke-linecap="round" stroke-linejoin="round"/>
<path d="M8.14502 8.17938L8.50402 7.82038C8.98202 7.34238 9.77402 7.40938 10.16 7.96438C10.403 8.31438 10.665 8.69038 10.958 9.10638C11.26 9.53638 11.214 10.1264 10.843 10.4994L10.44 10.9054" stroke="#418CFF" stroke-width="1.5" stroke-linecap="round" stroke-linejoin="round"/>
<path d="M15.8212 15.8554C14.3402 17.3294 11.8512 16.0774 9.88623 14.1114" stroke="#418CFF" stroke-width="1.5" stroke-linecap="round" stroke-linejoin="round"/>
<path d="M9.88807 14.1147C7.92307 12.1487 6.67107 9.66069 8.14507 8.17969" stroke="#418CFF" stroke-width="1.5" stroke-linecap="round" stroke-linejoin="round"/>
<path d="M10.4399 10.9054C10.7589 11.4084 11.1679 11.9064 11.6299 12.3684L11.6319 12.3704C12.0939 12.8324 12.5919 13.2414 13.0949 13.5604" stroke="#418CFF" stroke-width="1.5" stroke-linecap="round" stroke-linejoin="round"/>
</svg>
