<svg width="24" height="24" viewBox="0 0 24 24" fill="none" xmlns="http://www.w3.org/2000/svg">
<path fill-rule="evenodd" clip-rule="evenodd" d="M10.9999 1.99582H16.002C16.5544 1.99602 17.0022 2.4438 17.0024 2.99624V5.99749H9.99951V2.99624C9.99971 2.4438 10.4475 1.99602 10.9999 1.99582Z" stroke="#418CFF" stroke-width="1.5" stroke-linecap="round" stroke-linejoin="round"/>
<path d="M2.99609 15.0015V14.0011C2.99609 13.2051 3.31223 12.4417 3.87508 11.8789C4.43794 11.316 5.20135 10.9998 5.99734 10.9999H9.99901C10.795 10.9998 11.5584 11.316 12.1213 11.8789C12.6841 12.4417 13.0003 13.2051 13.0003 14.0011V15.0015" stroke="#418CFF" stroke-width="1.5" stroke-linecap="round" stroke-linejoin="round"/>
<path fill-rule="evenodd" clip-rule="evenodd" d="M13.0003 19.0032V18.0028H2.99609V19.0032C2.99595 19.5339 3.2067 20.0429 3.58196 20.4182C3.95722 20.7934 4.46623 21.0042 4.99693 21.0041H10.9994C11.5301 21.0042 12.0391 20.7934 12.4144 20.4182C12.7897 20.0429 13.0004 19.5339 13.0003 19.0032V19.0032Z" stroke="#418CFF" stroke-width="1.5" stroke-linecap="round" stroke-linejoin="round"/>
<path d="M14.0011 15.0012H1.99609" stroke="#418CFF" stroke-width="1.5" stroke-linecap="round" stroke-linejoin="round"/>
<path d="M5.99756 7.99876V7.49855C5.99756 6.66978 6.66941 5.99792 7.49818 5.99792H19.5032C20.332 5.99792 21.0038 6.66978 21.0038 7.49855V19.5035C21.0038 20.3323 20.332 21.0042 19.5032 21.0042H16.0017" stroke="#418CFF" stroke-width="1.5" stroke-linecap="round" stroke-linejoin="round"/>
</svg>
